<mxfile host="app.diagrams.net" agent="Mozilla/5.0 (Windows NT 10.0; Win64; x64) AppleWebKit/537.36 (KHTML, like Gecko) Chrome/136.0.0.0 Safari/537.36" version="26.2.14">
  <diagram name="Página-1" id="u1x-fezjBYRr22DN8m-P">
    <mxGraphModel dx="1031" dy="911" grid="1" gridSize="10" guides="1" tooltips="1" connect="1" arrows="1" fold="1" page="1" pageScale="1" pageWidth="827" pageHeight="1169" math="0" shadow="0">
      <root>
        <mxCell id="0" />
        <mxCell id="1" parent="0" />
        <mxCell id="V1iUfVh5NWwp2OkV4ms_-1" value="&amp;lt;&amp;lt;Interface Serviço&amp;gt;&amp;gt;&lt;div&gt;Gerenciar Conta&lt;/div&gt;" style="swimlane;fontStyle=1;align=center;verticalAlign=top;childLayout=stackLayout;horizontal=1;startSize=40;horizontalStack=0;resizeParent=1;resizeParentMax=0;resizeLast=0;collapsible=1;marginBottom=0;whiteSpace=wrap;html=1;" vertex="1" parent="1">
          <mxGeometry x="290" y="490" width="220" height="132" as="geometry" />
        </mxCell>
        <mxCell id="V1iUfVh5NWwp2OkV4ms_-2" value="+ Atribuir ID (): Dados Gerenciar Conta&amp;nbsp;" style="text;strokeColor=none;fillColor=none;align=left;verticalAlign=top;spacingLeft=4;spacingRight=4;overflow=hidden;rotatable=0;points=[[0,0.5],[1,0.5]];portConstraint=eastwest;whiteSpace=wrap;html=1;" vertex="1" parent="V1iUfVh5NWwp2OkV4ms_-1">
          <mxGeometry y="40" width="220" height="40" as="geometry" />
        </mxCell>
        <mxCell id="V1iUfVh5NWwp2OkV4ms_-4" value="+ Cadastrar usuário (conta: Dados Gerenciar Conta)" style="text;strokeColor=none;fillColor=none;align=left;verticalAlign=top;spacingLeft=4;spacingRight=4;overflow=hidden;rotatable=0;points=[[0,0.5],[1,0.5]];portConstraint=eastwest;whiteSpace=wrap;html=1;" vertex="1" parent="V1iUfVh5NWwp2OkV4ms_-1">
          <mxGeometry y="80" width="220" height="52" as="geometry" />
        </mxCell>
        <mxCell id="V1iUfVh5NWwp2OkV4ms_-5" value="&amp;lt;&amp;lt;Mediação&amp;gt;&amp;gt;&lt;div&gt;Gerenciar Conta Mediação&lt;/div&gt;" style="swimlane;fontStyle=1;align=center;verticalAlign=top;childLayout=stackLayout;horizontal=1;startSize=40;horizontalStack=0;resizeParent=1;resizeParentMax=0;resizeLast=0;collapsible=1;marginBottom=0;whiteSpace=wrap;html=1;" vertex="1" parent="1">
          <mxGeometry x="290" y="730" width="220" height="130" as="geometry" />
        </mxCell>
        <mxCell id="V1iUfVh5NWwp2OkV4ms_-9" value="&amp;lt;&amp;lt;Interface Serviço&amp;gt;&amp;gt; Gerenciar Conta" style="text;strokeColor=none;fillColor=none;align=left;verticalAlign=top;spacingLeft=4;spacingRight=4;overflow=hidden;rotatable=0;points=[[0,0.5],[1,0.5]];portConstraint=eastwest;whiteSpace=wrap;html=1;" vertex="1" parent="V1iUfVh5NWwp2OkV4ms_-5">
          <mxGeometry y="40" width="220" height="30" as="geometry" />
        </mxCell>
        <mxCell id="V1iUfVh5NWwp2OkV4ms_-6" value="+ Atribuir ID ()&lt;span style=&quot;color: rgba(0, 0, 0, 0); font-family: monospace; font-size: 0px; text-wrap-mode: nowrap;&quot;&gt;%3CmxGraphModel%3E%3Croot%3E%3CmxCell%20id%3D%220%22%2F%3E%3CmxCell%20id%3D%221%22%20parent%3D%220%22%2F%3E%3CmxCell%20id%3D%222%22%20value%3D%22%26amp%3Blt%3B%26amp%3Blt%3BInterface%20Servi%C3%A7o%26amp%3Bgt%3B%26amp%3Bgt%3B%26lt%3Bdiv%26gt%3BGerenciar%20Conta%26lt%3B%2Fdiv%26gt%3B%22%20style%3D%22swimlane%3BfontStyle%3D1%3Balign%3Dcenter%3BverticalAlign%3Dtop%3BchildLayout%3DstackLayout%3Bhorizontal%3D1%3BstartSize%3D40%3BhorizontalStack%3D0%3BresizeParent%3D1%3BresizeParentMax%3D0%3BresizeLast%3D0%3Bcollapsible%3D1%3BmarginBottom%3D0%3BwhiteSpace%3Dwrap%3Bhtml%3D1%3B%22%20vertex%3D%221%22%20parent%3D%221%22%3E%3CmxGeometry%20x%3D%22290%22%20y%3D%22490%22%20width%3D%22220%22%20height%3D%22140%22%20as%3D%22geometry%22%2F%3E%3C%2FmxCell%3E%3CmxCell%20id%3D%223%22%20value%3D%22%2B%20Atribuir%20ID%20(ID%3A%20string)%3A%20Dados%20Gerenciar%20Conta%26amp%3Bnbsp%3B%22%20style%3D%22text%3BstrokeColor%3Dnone%3BfillColor%3Dnone%3Balign%3Dleft%3BverticalAlign%3Dtop%3BspacingLeft%3D4%3BspacingRight%3D4%3Boverflow%3Dhidden%3Brotatable%3D0%3Bpoints%3D%5B%5B0%2C0.5%5D%2C%5B1%2C0.5%5D%5D%3BportConstraint%3Deastwest%3BwhiteSpace%3Dwrap%3Bhtml%3D1%3B%22%20vertex%3D%221%22%20parent%3D%222%22%3E%3CmxGeometry%20y%3D%2240%22%20width%3D%22220%22%20height%3D%2240%22%20as%3D%22geometry%22%2F%3E%3C%2FmxCell%3E%3CmxCell%20id%3D%224%22%20value%3D%22%22%20style%3D%22line%3BstrokeWidth%3D1%3BfillColor%3Dnone%3Balign%3Dleft%3BverticalAlign%3Dmiddle%3BspacingTop%3D-1%3BspacingLeft%3D3%3BspacingRight%3D3%3Brotatable%3D0%3BlabelPosition%3Dright%3Bpoints%3D%5B%5D%3BportConstraint%3Deastwest%3BstrokeColor%3Dinherit%3B%22%20vertex%3D%221%22%20parent%3D%222%22%3E%3CmxGeometry%20y%3D%2280%22%20width%3D%22220%22%20height%3D%228%22%20as%3D%22geometry%22%2F%3E%3C%2FmxCell%3E%3CmxCell%20id%3D%225%22%20value%3D%22%2B%20Cadastrar%20usu%C3%A1rio%20(Gerenciar%20Conta%3A%20Dados%20Gerenciar%20Conta)%3A%26amp%3Bnbsp%3B%22%20style%3D%22text%3BstrokeColor%3Dnone%3BfillColor%3Dnone%3Balign%3Dleft%3BverticalAlign%3Dtop%3BspacingLeft%3D4%3BspacingRight%3D4%3Boverflow%3Dhidden%3Brotatable%3D0%3Bpoints%3D%5B%5B0%2C0.5%5D%2C%5B1%2C0.5%5D%5D%3BportConstraint%3Deastwest%3BwhiteSpace%3Dwrap%3Bhtml%3D1%3B%22%20vertex%3D%221%22%20parent%3D%222%22%3E%3CmxGeometry%20y%3D%2288%22%20width%3D%22220%22%20height%3D%2252%22%20as%3D%22geometry%22%2F%3E%3C%2FmxCell%3E%3C%2Froot%3E%3C%2FmxGraphModel%3E&lt;/span&gt;" style="text;strokeColor=none;fillColor=none;align=left;verticalAlign=top;spacingLeft=4;spacingRight=4;overflow=hidden;rotatable=0;points=[[0,0.5],[1,0.5]];portConstraint=eastwest;whiteSpace=wrap;html=1;" vertex="1" parent="V1iUfVh5NWwp2OkV4ms_-5">
          <mxGeometry y="70" width="220" height="30" as="geometry" />
        </mxCell>
        <mxCell id="V1iUfVh5NWwp2OkV4ms_-8" value="+ Cadastrar usuário ()" style="text;strokeColor=none;fillColor=none;align=left;verticalAlign=top;spacingLeft=4;spacingRight=4;overflow=hidden;rotatable=0;points=[[0,0.5],[1,0.5]];portConstraint=eastwest;whiteSpace=wrap;html=1;" vertex="1" parent="V1iUfVh5NWwp2OkV4ms_-5">
          <mxGeometry y="100" width="220" height="30" as="geometry" />
        </mxCell>
        <mxCell id="V1iUfVh5NWwp2OkV4ms_-11" style="edgeStyle=orthogonalEdgeStyle;rounded=0;orthogonalLoop=1;jettySize=auto;html=1;entryX=0.5;entryY=0.99;entryDx=0;entryDy=0;entryPerimeter=0;dashed=1;endArrow=block;endFill=0;" edge="1" parent="1" source="V1iUfVh5NWwp2OkV4ms_-5" target="V1iUfVh5NWwp2OkV4ms_-4">
          <mxGeometry relative="1" as="geometry" />
        </mxCell>
        <mxCell id="V1iUfVh5NWwp2OkV4ms_-12" value="&amp;lt;&amp;lt;Componente Serviço&amp;gt;&amp;gt;&lt;div&gt;Atribuir ID&lt;/div&gt;" style="swimlane;fontStyle=1;align=center;verticalAlign=top;childLayout=stackLayout;horizontal=1;startSize=40;horizontalStack=0;resizeParent=1;resizeParentMax=0;resizeLast=0;collapsible=1;marginBottom=0;whiteSpace=wrap;html=1;" vertex="1" parent="1">
          <mxGeometry x="110" y="950" width="220" height="70" as="geometry" />
        </mxCell>
        <mxCell id="V1iUfVh5NWwp2OkV4ms_-14" value="+ Atribuir ID ()&lt;span style=&quot;color: rgba(0, 0, 0, 0); font-family: monospace; font-size: 0px; text-wrap-mode: nowrap;&quot;&gt;%3CmxGraphModel%3E%3Croot%3E%3CmxCell%20id%3D%220%22%2F%3E%3CmxCell%20id%3D%221%22%20parent%3D%220%22%2F%3E%3CmxCell%20id%3D%222%22%20value%3D%22%26amp%3Blt%3B%26amp%3Blt%3BInterface%20Servi%C3%A7o%26amp%3Bgt%3B%26amp%3Bgt%3B%26lt%3Bdiv%26gt%3BGerenciar%20Conta%26lt%3B%2Fdiv%26gt%3B%22%20style%3D%22swimlane%3BfontStyle%3D1%3Balign%3Dcenter%3BverticalAlign%3Dtop%3BchildLayout%3DstackLayout%3Bhorizontal%3D1%3BstartSize%3D40%3BhorizontalStack%3D0%3BresizeParent%3D1%3BresizeParentMax%3D0%3BresizeLast%3D0%3Bcollapsible%3D1%3BmarginBottom%3D0%3BwhiteSpace%3Dwrap%3Bhtml%3D1%3B%22%20vertex%3D%221%22%20parent%3D%221%22%3E%3CmxGeometry%20x%3D%22290%22%20y%3D%22490%22%20width%3D%22220%22%20height%3D%22140%22%20as%3D%22geometry%22%2F%3E%3C%2FmxCell%3E%3CmxCell%20id%3D%223%22%20value%3D%22%2B%20Atribuir%20ID%20(ID%3A%20string)%3A%20Dados%20Gerenciar%20Conta%26amp%3Bnbsp%3B%22%20style%3D%22text%3BstrokeColor%3Dnone%3BfillColor%3Dnone%3Balign%3Dleft%3BverticalAlign%3Dtop%3BspacingLeft%3D4%3BspacingRight%3D4%3Boverflow%3Dhidden%3Brotatable%3D0%3Bpoints%3D%5B%5B0%2C0.5%5D%2C%5B1%2C0.5%5D%5D%3BportConstraint%3Deastwest%3BwhiteSpace%3Dwrap%3Bhtml%3D1%3B%22%20vertex%3D%221%22%20parent%3D%222%22%3E%3CmxGeometry%20y%3D%2240%22%20width%3D%22220%22%20height%3D%2240%22%20as%3D%22geometry%22%2F%3E%3C%2FmxCell%3E%3CmxCell%20id%3D%224%22%20value%3D%22%22%20style%3D%22line%3BstrokeWidth%3D1%3BfillColor%3Dnone%3Balign%3Dleft%3BverticalAlign%3Dmiddle%3BspacingTop%3D-1%3BspacingLeft%3D3%3BspacingRight%3D3%3Brotatable%3D0%3BlabelPosition%3Dright%3Bpoints%3D%5B%5D%3BportConstraint%3Deastwest%3BstrokeColor%3Dinherit%3B%22%20vertex%3D%221%22%20parent%3D%222%22%3E%3CmxGeometry%20y%3D%2280%22%20width%3D%22220%22%20height%3D%228%22%20as%3D%22geometry%22%2F%3E%3C%2FmxCell%3E%3CmxCell%20id%3D%225%22%20value%3D%22%2B%20Cadastrar%20usu%C3%A1rio%20(Gerenciar%20Conta%3A%20Dados%20Gerenciar%20Conta)%3A%26amp%3Bnbsp%3B%22%20style%3D%22text%3BstrokeColor%3Dnone%3BfillColor%3Dnone%3Balign%3Dleft%3BverticalAlign%3Dtop%3BspacingLeft%3D4%3BspacingRight%3D4%3Boverflow%3Dhidden%3Brotatable%3D0%3Bpoints%3D%5B%5B0%2C0.5%5D%2C%5B1%2C0.5%5D%5D%3BportConstraint%3Deastwest%3BwhiteSpace%3Dwrap%3Bhtml%3D1%3B%22%20vertex%3D%221%22%20parent%3D%222%22%3E%3CmxGeometry%20y%3D%2288%22%20width%3D%22220%22%20height%3D%2252%22%20as%3D%22geometry%22%2F%3E%3C%2FmxCell%3E%3C%2Froot%3E%3C%2FmxGraphModel%3E&lt;/span&gt;" style="text;strokeColor=none;fillColor=none;align=left;verticalAlign=top;spacingLeft=4;spacingRight=4;overflow=hidden;rotatable=0;points=[[0,0.5],[1,0.5]];portConstraint=eastwest;whiteSpace=wrap;html=1;" vertex="1" parent="V1iUfVh5NWwp2OkV4ms_-12">
          <mxGeometry y="40" width="220" height="30" as="geometry" />
        </mxCell>
        <mxCell id="V1iUfVh5NWwp2OkV4ms_-16" value="&amp;lt;&amp;lt;Componente Serviço&amp;gt;&amp;gt;&lt;div&gt;Cadastrar usuário&lt;/div&gt;" style="swimlane;fontStyle=1;align=center;verticalAlign=top;childLayout=stackLayout;horizontal=1;startSize=40;horizontalStack=0;resizeParent=1;resizeParentMax=0;resizeLast=0;collapsible=1;marginBottom=0;whiteSpace=wrap;html=1;" vertex="1" parent="1">
          <mxGeometry x="460" y="950" width="220" height="70" as="geometry" />
        </mxCell>
        <mxCell id="V1iUfVh5NWwp2OkV4ms_-17" value="+ Cadastrar usuário ()&lt;span style=&quot;color: rgba(0, 0, 0, 0); font-family: monospace; font-size: 0px; text-wrap-mode: nowrap;&quot;&gt;%3CmxGraphModel%3E%3Croot%3E%3CmxCell%20id%3D%220%22%2F%3E%3CmxCell%20id%3D%221%22%20parent%3D%220%22%2F%3E%3CmxCell%20id%3D%222%22%20value%3D%22%26amp%3Blt%3B%26amp%3Blt%3BInterface%20Servi%C3%A7o%26amp%3Bgt%3B%26amp%3Bgt%3B%26lt%3Bdiv%26gt%3BGerenciar%20Conta%26lt%3B%2Fdiv%26gt%3B%22%20style%3D%22swimlane%3BfontStyle%3D1%3Balign%3Dcenter%3BverticalAlign%3Dtop%3BchildLayout%3DstackLayout%3Bhorizontal%3D1%3BstartSize%3D40%3BhorizontalStack%3D0%3BresizeParent%3D1%3BresizeParentMax%3D0%3BresizeLast%3D0%3Bcollapsible%3D1%3BmarginBottom%3D0%3BwhiteSpace%3Dwrap%3Bhtml%3D1%3B%22%20vertex%3D%221%22%20parent%3D%221%22%3E%3CmxGeometry%20x%3D%22290%22%20y%3D%22490%22%20width%3D%22220%22%20height%3D%22140%22%20as%3D%22geometry%22%2F%3E%3C%2FmxCell%3E%3CmxCell%20id%3D%223%22%20value%3D%22%2B%20Atribuir%20ID%20(ID%3A%20string)%3A%20Dados%20Gerenciar%20Conta%26amp%3Bnbsp%3B%22%20style%3D%22text%3BstrokeColor%3Dnone%3BfillColor%3Dnone%3Balign%3Dleft%3BverticalAlign%3Dtop%3BspacingLeft%3D4%3BspacingRight%3D4%3Boverflow%3Dhidden%3Brotatable%3D0%3Bpoints%3D%5B%5B0%2C0.5%5D%2C%5B1%2C0.5%5D%5D%3BportConstraint%3Deastwest%3BwhiteSpace%3Dwrap%3Bhtml%3D1%3B%22%20vertex%3D%221%22%20parent%3D%222%22%3E%3CmxGeometry%20y%3D%2240%22%20width%3D%22220%22%20height%3D%2240%22%20as%3D%22geometry%22%2F%3E%3C%2FmxCell%3E%3CmxCell%20id%3D%224%22%20value%3D%22%22%20style%3D%22line%3BstrokeWidth%3D1%3BfillColor%3Dnone%3Balign%3Dleft%3BverticalAlign%3Dmiddle%3BspacingTop%3D-1%3BspacingLeft%3D3%3BspacingRight%3D3%3Brotatable%3D0%3BlabelPosition%3Dright%3Bpoints%3D%5B%5D%3BportConstraint%3Deastwest%3BstrokeColor%3Dinherit%3B%22%20vertex%3D%221%22%20parent%3D%222%22%3E%3CmxGeometry%20y%3D%2280%22%20width%3D%22220%22%20height%3D%228%22%20as%3D%22geometry%22%2F%3E%3C%2FmxCell%3E%3CmxCell%20id%3D%225%22%20value%3D%22%2B%20Cadastrar%20usu%C3%A1rio%20(Gerenciar%20Conta%3A%20Dados%20Gerenciar%20Conta)%3A%26amp%3Bnbsp%3B%22%20style%3D%22text%3BstrokeColor%3Dnone%3BfillColor%3Dnone%3Balign%3Dleft%3BverticalAlign%3Dtop%3BspacingLeft%3D4%3BspacingRight%3D4%3Boverflow%3Dhidden%3Brotatable%3D0%3Bpoints%3D%5B%5B0%2C0.5%5D%2C%5B1%2C0.5%5D%5D%3BportConstraint%3Deastwest%3BwhiteSpace%3Dwrap%3Bhtml%3D1%3B%22%20vertex%3D%221%22%20parent%3D%222%22%3E%3CmxGeometry%20y%3D%2288%22%20width%3D%22220%22%20height%3D%2252%22%20as%3D%22geometry%22%2F%3E%3C%2FmxCell%3E%3C%2Froot%3E%3C%2FmxGraphModel&lt;/span&gt;" style="text;strokeColor=none;fillColor=none;align=left;verticalAlign=top;spacingLeft=4;spacingRight=4;overflow=hidden;rotatable=0;points=[[0,0.5],[1,0.5]];portConstraint=eastwest;whiteSpace=wrap;html=1;" vertex="1" parent="V1iUfVh5NWwp2OkV4ms_-16">
          <mxGeometry y="40" width="220" height="30" as="geometry" />
        </mxCell>
        <mxCell id="V1iUfVh5NWwp2OkV4ms_-19" value="Use" style="endArrow=open;html=1;rounded=0;exitX=0.489;exitY=1.021;exitDx=0;exitDy=0;exitPerimeter=0;entryX=0.5;entryY=0;entryDx=0;entryDy=0;endFill=0;dashed=1;" edge="1" parent="1" source="V1iUfVh5NWwp2OkV4ms_-8" target="V1iUfVh5NWwp2OkV4ms_-12">
          <mxGeometry width="50" height="50" relative="1" as="geometry">
            <mxPoint x="180" y="870" as="sourcePoint" />
            <mxPoint x="230" y="820" as="targetPoint" />
          </mxGeometry>
        </mxCell>
        <mxCell id="V1iUfVh5NWwp2OkV4ms_-20" value="Use" style="endArrow=open;html=1;rounded=0;entryX=0.5;entryY=0;entryDx=0;entryDy=0;endFill=0;dashed=1;" edge="1" parent="1" target="V1iUfVh5NWwp2OkV4ms_-16">
          <mxGeometry width="50" height="50" relative="1" as="geometry">
            <mxPoint x="400" y="860" as="sourcePoint" />
            <mxPoint x="230" y="960" as="targetPoint" />
          </mxGeometry>
        </mxCell>
        <mxCell id="V1iUfVh5NWwp2OkV4ms_-29" value="&amp;lt;&amp;lt;Classes&amp;gt;&amp;gt;&lt;div&gt;Gerenciar Conta&lt;/div&gt;" style="swimlane;fontStyle=1;align=center;verticalAlign=top;childLayout=stackLayout;horizontal=1;startSize=40;horizontalStack=0;resizeParent=1;resizeParentMax=0;resizeLast=0;collapsible=1;marginBottom=0;whiteSpace=wrap;html=1;" vertex="1" parent="1">
          <mxGeometry x="320" y="1130" width="160" height="92" as="geometry" />
        </mxCell>
        <mxCell id="V1iUfVh5NWwp2OkV4ms_-30" value="+ Criar ()" style="text;strokeColor=none;fillColor=none;align=left;verticalAlign=top;spacingLeft=4;spacingRight=4;overflow=hidden;rotatable=0;points=[[0,0.5],[1,0.5]];portConstraint=eastwest;whiteSpace=wrap;html=1;" vertex="1" parent="V1iUfVh5NWwp2OkV4ms_-29">
          <mxGeometry y="40" width="160" height="26" as="geometry" />
        </mxCell>
        <mxCell id="V1iUfVh5NWwp2OkV4ms_-34" value="+ Editar ()" style="text;strokeColor=none;fillColor=none;align=left;verticalAlign=top;spacingLeft=4;spacingRight=4;overflow=hidden;rotatable=0;points=[[0,0.5],[1,0.5]];portConstraint=eastwest;whiteSpace=wrap;html=1;" vertex="1" parent="V1iUfVh5NWwp2OkV4ms_-29">
          <mxGeometry y="66" width="160" height="26" as="geometry" />
        </mxCell>
        <mxCell id="V1iUfVh5NWwp2OkV4ms_-35" value="Use" style="endArrow=open;html=1;rounded=0;exitX=0.485;exitY=1.034;exitDx=0;exitDy=0;exitPerimeter=0;entryX=0.5;entryY=0;entryDx=0;entryDy=0;endFill=0;dashed=1;" edge="1" parent="1" source="V1iUfVh5NWwp2OkV4ms_-14" target="V1iUfVh5NWwp2OkV4ms_-29">
          <mxGeometry width="50" height="50" relative="1" as="geometry">
            <mxPoint x="408" y="871" as="sourcePoint" />
            <mxPoint x="230" y="960" as="targetPoint" />
          </mxGeometry>
        </mxCell>
        <mxCell id="V1iUfVh5NWwp2OkV4ms_-36" value="Use" style="endArrow=open;html=1;rounded=0;exitX=0.515;exitY=1.048;exitDx=0;exitDy=0;exitPerimeter=0;entryX=0.5;entryY=0;entryDx=0;entryDy=0;endFill=0;dashed=1;" edge="1" parent="1" source="V1iUfVh5NWwp2OkV4ms_-17" target="V1iUfVh5NWwp2OkV4ms_-29">
          <mxGeometry width="50" height="50" relative="1" as="geometry">
            <mxPoint x="510" y="1031" as="sourcePoint" />
            <mxPoint x="693" y="1140" as="targetPoint" />
          </mxGeometry>
        </mxCell>
        <mxCell id="V1iUfVh5NWwp2OkV4ms_-37" value="&amp;lt;&amp;lt;node&amp;gt;&amp;gt;&lt;div&gt;Armazenamento local&lt;/div&gt;" style="html=1;whiteSpace=wrap;" vertex="1" parent="1">
          <mxGeometry x="345" y="1280" width="110" height="50" as="geometry" />
        </mxCell>
        <mxCell id="V1iUfVh5NWwp2OkV4ms_-38" value="Use" style="edgeStyle=orthogonalEdgeStyle;rounded=0;orthogonalLoop=1;jettySize=auto;html=1;exitX=0.5;exitY=0;exitDx=0;exitDy=0;entryX=0.499;entryY=0.99;entryDx=0;entryDy=0;entryPerimeter=0;endArrow=none;startFill=0;startArrow=open;dashed=1;" edge="1" parent="1" source="V1iUfVh5NWwp2OkV4ms_-37" target="V1iUfVh5NWwp2OkV4ms_-34">
          <mxGeometry relative="1" as="geometry" />
        </mxCell>
        <mxCell id="V1iUfVh5NWwp2OkV4ms_-39" value="&amp;lt;&amp;lt;Interface Serviço&amp;gt;&amp;gt;&lt;div&gt;Gerenciar Contatos&lt;/div&gt;" style="swimlane;fontStyle=1;align=center;verticalAlign=top;childLayout=stackLayout;horizontal=1;startSize=40;horizontalStack=0;resizeParent=1;resizeParentMax=0;resizeLast=0;collapsible=1;marginBottom=0;whiteSpace=wrap;html=1;" vertex="1" parent="1">
          <mxGeometry x="960" y="542" width="220" height="80" as="geometry" />
        </mxCell>
        <mxCell id="V1iUfVh5NWwp2OkV4ms_-40" value="+ Criar os contatos (contatos: Dados Gerenciar Contatos)" style="text;strokeColor=none;fillColor=none;align=left;verticalAlign=top;spacingLeft=4;spacingRight=4;overflow=hidden;rotatable=0;points=[[0,0.5],[1,0.5]];portConstraint=eastwest;whiteSpace=wrap;html=1;" vertex="1" parent="V1iUfVh5NWwp2OkV4ms_-39">
          <mxGeometry y="40" width="220" height="40" as="geometry" />
        </mxCell>
        <mxCell id="V1iUfVh5NWwp2OkV4ms_-42" value="&amp;lt;&amp;lt;Mediação&amp;gt;&amp;gt;&lt;br&gt;&lt;div&gt;&lt;span style=&quot;background-color: transparent; color: light-dark(rgb(0, 0, 0), rgb(255, 255, 255));&quot;&gt;Gerenciar Contatos&lt;/span&gt;&amp;nbsp;Mediação&lt;/div&gt;" style="swimlane;fontStyle=1;align=center;verticalAlign=top;childLayout=stackLayout;horizontal=1;startSize=40;horizontalStack=0;resizeParent=1;resizeParentMax=0;resizeLast=0;collapsible=1;marginBottom=0;whiteSpace=wrap;html=1;" vertex="1" parent="1">
          <mxGeometry x="950" y="730" width="240" height="100" as="geometry" />
        </mxCell>
        <mxCell id="V1iUfVh5NWwp2OkV4ms_-43" value="&amp;lt;&amp;lt;Interface Serviço&amp;gt;&amp;gt; Gerenciar Contatos" style="text;strokeColor=none;fillColor=none;align=left;verticalAlign=top;spacingLeft=4;spacingRight=4;overflow=hidden;rotatable=0;points=[[0,0.5],[1,0.5]];portConstraint=eastwest;whiteSpace=wrap;html=1;" vertex="1" parent="V1iUfVh5NWwp2OkV4ms_-42">
          <mxGeometry y="40" width="240" height="30" as="geometry" />
        </mxCell>
        <mxCell id="V1iUfVh5NWwp2OkV4ms_-44" value="+ Criar os contatos ()" style="text;strokeColor=none;fillColor=none;align=left;verticalAlign=top;spacingLeft=4;spacingRight=4;overflow=hidden;rotatable=0;points=[[0,0.5],[1,0.5]];portConstraint=eastwest;whiteSpace=wrap;html=1;" vertex="1" parent="V1iUfVh5NWwp2OkV4ms_-42">
          <mxGeometry y="70" width="240" height="30" as="geometry" />
        </mxCell>
        <mxCell id="V1iUfVh5NWwp2OkV4ms_-46" style="edgeStyle=orthogonalEdgeStyle;rounded=0;orthogonalLoop=1;jettySize=auto;html=1;entryX=0.5;entryY=0.99;entryDx=0;entryDy=0;entryPerimeter=0;dashed=1;endArrow=block;endFill=0;" edge="1" parent="1" source="V1iUfVh5NWwp2OkV4ms_-42">
          <mxGeometry relative="1" as="geometry">
            <mxPoint x="1070.0000000000002" y="621.48" as="targetPoint" />
          </mxGeometry>
        </mxCell>
        <mxCell id="V1iUfVh5NWwp2OkV4ms_-47" value="&amp;lt;&amp;lt;Componente Serviço&amp;gt;&amp;gt;&lt;div&gt;Criar os contatos&lt;/div&gt;" style="swimlane;fontStyle=1;align=center;verticalAlign=top;childLayout=stackLayout;horizontal=1;startSize=40;horizontalStack=0;resizeParent=1;resizeParentMax=0;resizeLast=0;collapsible=1;marginBottom=0;whiteSpace=wrap;html=1;" vertex="1" parent="1">
          <mxGeometry x="950" y="930" width="240" height="70" as="geometry" />
        </mxCell>
        <mxCell id="V1iUfVh5NWwp2OkV4ms_-48" value="+ Criar os contatos ()" style="text;strokeColor=none;fillColor=none;align=left;verticalAlign=top;spacingLeft=4;spacingRight=4;overflow=hidden;rotatable=0;points=[[0,0.5],[1,0.5]];portConstraint=eastwest;whiteSpace=wrap;html=1;" vertex="1" parent="V1iUfVh5NWwp2OkV4ms_-47">
          <mxGeometry y="40" width="240" height="30" as="geometry" />
        </mxCell>
        <mxCell id="V1iUfVh5NWwp2OkV4ms_-51" value="Use" style="endArrow=open;html=1;rounded=0;entryX=0.5;entryY=0;entryDx=0;entryDy=0;endFill=0;dashed=1;" edge="1" parent="1" target="V1iUfVh5NWwp2OkV4ms_-47">
          <mxGeometry width="50" height="50" relative="1" as="geometry">
            <mxPoint x="1070" y="830" as="sourcePoint" />
            <mxPoint x="900" y="820" as="targetPoint" />
          </mxGeometry>
        </mxCell>
        <mxCell id="V1iUfVh5NWwp2OkV4ms_-53" value="&amp;lt;&amp;lt;Classes&amp;gt;&amp;gt;&lt;div&gt;Gerenciar Contatos&lt;/div&gt;" style="swimlane;fontStyle=1;align=center;verticalAlign=top;childLayout=stackLayout;horizontal=1;startSize=40;horizontalStack=0;resizeParent=1;resizeParentMax=0;resizeLast=0;collapsible=1;marginBottom=0;whiteSpace=wrap;html=1;" vertex="1" parent="1">
          <mxGeometry x="990" y="1130" width="160" height="118" as="geometry" />
        </mxCell>
        <mxCell id="V1iUfVh5NWwp2OkV4ms_-54" value="+ Criar ()" style="text;strokeColor=none;fillColor=none;align=left;verticalAlign=top;spacingLeft=4;spacingRight=4;overflow=hidden;rotatable=0;points=[[0,0.5],[1,0.5]];portConstraint=eastwest;whiteSpace=wrap;html=1;" vertex="1" parent="V1iUfVh5NWwp2OkV4ms_-53">
          <mxGeometry y="40" width="160" height="26" as="geometry" />
        </mxCell>
        <mxCell id="V1iUfVh5NWwp2OkV4ms_-55" value="+ Editar ()" style="text;strokeColor=none;fillColor=none;align=left;verticalAlign=top;spacingLeft=4;spacingRight=4;overflow=hidden;rotatable=0;points=[[0,0.5],[1,0.5]];portConstraint=eastwest;whiteSpace=wrap;html=1;" vertex="1" parent="V1iUfVh5NWwp2OkV4ms_-53">
          <mxGeometry y="66" width="160" height="26" as="geometry" />
        </mxCell>
        <mxCell id="V1iUfVh5NWwp2OkV4ms_-61" value="+ Remover()" style="text;strokeColor=none;fillColor=none;align=left;verticalAlign=top;spacingLeft=4;spacingRight=4;overflow=hidden;rotatable=0;points=[[0,0.5],[1,0.5]];portConstraint=eastwest;whiteSpace=wrap;html=1;" vertex="1" parent="V1iUfVh5NWwp2OkV4ms_-53">
          <mxGeometry y="92" width="160" height="26" as="geometry" />
        </mxCell>
        <mxCell id="V1iUfVh5NWwp2OkV4ms_-56" value="Use" style="endArrow=open;html=1;rounded=0;exitX=0.485;exitY=1.034;exitDx=0;exitDy=0;exitPerimeter=0;entryX=0.5;entryY=0;entryDx=0;entryDy=0;endFill=0;dashed=1;" edge="1" parent="1" source="V1iUfVh5NWwp2OkV4ms_-48" target="V1iUfVh5NWwp2OkV4ms_-53">
          <mxGeometry width="50" height="50" relative="1" as="geometry">
            <mxPoint x="1078" y="871" as="sourcePoint" />
            <mxPoint x="900" y="960" as="targetPoint" />
          </mxGeometry>
        </mxCell>
        <mxCell id="V1iUfVh5NWwp2OkV4ms_-58" value="&amp;lt;&amp;lt;node&amp;gt;&amp;gt;&lt;div&gt;Armazenamento local&lt;/div&gt;" style="html=1;whiteSpace=wrap;" vertex="1" parent="1">
          <mxGeometry x="1015" y="1306.26" width="110" height="50" as="geometry" />
        </mxCell>
        <mxCell id="V1iUfVh5NWwp2OkV4ms_-59" value="Use" style="edgeStyle=orthogonalEdgeStyle;rounded=0;orthogonalLoop=1;jettySize=auto;html=1;exitX=0.5;exitY=0;exitDx=0;exitDy=0;entryX=0.499;entryY=0.99;entryDx=0;entryDy=0;entryPerimeter=0;endArrow=none;startFill=0;startArrow=open;dashed=1;" edge="1" parent="1" source="V1iUfVh5NWwp2OkV4ms_-58">
          <mxGeometry relative="1" as="geometry">
            <mxPoint x="1069.8399999999997" y="1247.9999999999998" as="targetPoint" />
          </mxGeometry>
        </mxCell>
        <mxCell id="V1iUfVh5NWwp2OkV4ms_-63" value="&amp;lt;&amp;lt;Interface Serviço&amp;gt;&amp;gt;&lt;div&gt;Gerenciar Sinais vitais&lt;/div&gt;" style="swimlane;fontStyle=1;align=center;verticalAlign=top;childLayout=stackLayout;horizontal=1;startSize=40;horizontalStack=0;resizeParent=1;resizeParentMax=0;resizeLast=0;collapsible=1;marginBottom=0;whiteSpace=wrap;html=1;" vertex="1" parent="1">
          <mxGeometry x="1560" y="470" width="220" height="236" as="geometry" />
        </mxCell>
        <mxCell id="V1iUfVh5NWwp2OkV4ms_-64" value="+ Receber dados vitais (sinais vitais: Dados Gerenciar Sinais Vitais)" style="text;strokeColor=none;fillColor=none;align=left;verticalAlign=top;spacingLeft=4;spacingRight=4;overflow=hidden;rotatable=0;points=[[0,0.5],[1,0.5]];portConstraint=eastwest;whiteSpace=wrap;html=1;" vertex="1" parent="V1iUfVh5NWwp2OkV4ms_-63">
          <mxGeometry y="40" width="220" height="40" as="geometry" />
        </mxCell>
        <mxCell id="V1iUfVh5NWwp2OkV4ms_-65" value="+ Comparar sinais vitais (sinais vitais: Dados Gerenciar Sinais Vitais)" style="text;strokeColor=none;fillColor=none;align=left;verticalAlign=top;spacingLeft=4;spacingRight=4;overflow=hidden;rotatable=0;points=[[0,0.5],[1,0.5]];portConstraint=eastwest;whiteSpace=wrap;html=1;" vertex="1" parent="V1iUfVh5NWwp2OkV4ms_-63">
          <mxGeometry y="80" width="220" height="52" as="geometry" />
        </mxCell>
        <mxCell id="V1iUfVh5NWwp2OkV4ms_-84" value="+ Armazenar sinais vitais (conta: Dados Gerenciar Conta)" style="text;strokeColor=none;fillColor=none;align=left;verticalAlign=top;spacingLeft=4;spacingRight=4;overflow=hidden;rotatable=0;points=[[0,0.5],[1,0.5]];portConstraint=eastwest;whiteSpace=wrap;html=1;" vertex="1" parent="V1iUfVh5NWwp2OkV4ms_-63">
          <mxGeometry y="132" width="220" height="52" as="geometry" />
        </mxCell>
        <mxCell id="V1iUfVh5NWwp2OkV4ms_-85" value="+ Exibir sinais vitais (): conta: Dados Gerenciar Conta" style="text;strokeColor=none;fillColor=none;align=left;verticalAlign=top;spacingLeft=4;spacingRight=4;overflow=hidden;rotatable=0;points=[[0,0.5],[1,0.5]];portConstraint=eastwest;whiteSpace=wrap;html=1;" vertex="1" parent="V1iUfVh5NWwp2OkV4ms_-63">
          <mxGeometry y="184" width="220" height="52" as="geometry" />
        </mxCell>
        <mxCell id="V1iUfVh5NWwp2OkV4ms_-66" value="&amp;lt;&amp;lt;Mediação&amp;gt;&amp;gt;&lt;div&gt;Gerenciar Sinais Vitais Mediação&lt;/div&gt;" style="swimlane;fontStyle=1;align=center;verticalAlign=top;childLayout=stackLayout;horizontal=1;startSize=40;horizontalStack=0;resizeParent=1;resizeParentMax=0;resizeLast=0;collapsible=1;marginBottom=0;whiteSpace=wrap;html=1;" vertex="1" parent="1">
          <mxGeometry x="1560" y="740" width="220" height="200" as="geometry" />
        </mxCell>
        <mxCell id="V1iUfVh5NWwp2OkV4ms_-67" value="&amp;lt;&amp;lt;Interface Serviço&amp;gt;&amp;gt; Gerenciar Sinais Vitais" style="text;strokeColor=none;fillColor=none;align=left;verticalAlign=top;spacingLeft=4;spacingRight=4;overflow=hidden;rotatable=0;points=[[0,0.5],[1,0.5]];portConstraint=eastwest;whiteSpace=wrap;html=1;" vertex="1" parent="V1iUfVh5NWwp2OkV4ms_-66">
          <mxGeometry y="40" width="220" height="40" as="geometry" />
        </mxCell>
        <mxCell id="V1iUfVh5NWwp2OkV4ms_-68" value="+ Receber dados vitais ()" style="text;strokeColor=none;fillColor=none;align=left;verticalAlign=top;spacingLeft=4;spacingRight=4;overflow=hidden;rotatable=0;points=[[0,0.5],[1,0.5]];portConstraint=eastwest;whiteSpace=wrap;html=1;" vertex="1" parent="V1iUfVh5NWwp2OkV4ms_-66">
          <mxGeometry y="80" width="220" height="30" as="geometry" />
        </mxCell>
        <mxCell id="V1iUfVh5NWwp2OkV4ms_-69" value="+ Comparar sinais vitais ()" style="text;strokeColor=none;fillColor=none;align=left;verticalAlign=top;spacingLeft=4;spacingRight=4;overflow=hidden;rotatable=0;points=[[0,0.5],[1,0.5]];portConstraint=eastwest;whiteSpace=wrap;html=1;" vertex="1" parent="V1iUfVh5NWwp2OkV4ms_-66">
          <mxGeometry y="110" width="220" height="30" as="geometry" />
        </mxCell>
        <mxCell id="V1iUfVh5NWwp2OkV4ms_-86" value="+ Armazenar sinais vitais ()" style="text;strokeColor=none;fillColor=none;align=left;verticalAlign=top;spacingLeft=4;spacingRight=4;overflow=hidden;rotatable=0;points=[[0,0.5],[1,0.5]];portConstraint=eastwest;whiteSpace=wrap;html=1;" vertex="1" parent="V1iUfVh5NWwp2OkV4ms_-66">
          <mxGeometry y="140" width="220" height="30" as="geometry" />
        </mxCell>
        <mxCell id="V1iUfVh5NWwp2OkV4ms_-87" value="+ Exibir sinais vitais ()" style="text;strokeColor=none;fillColor=none;align=left;verticalAlign=top;spacingLeft=4;spacingRight=4;overflow=hidden;rotatable=0;points=[[0,0.5],[1,0.5]];portConstraint=eastwest;whiteSpace=wrap;html=1;" vertex="1" parent="V1iUfVh5NWwp2OkV4ms_-66">
          <mxGeometry y="170" width="220" height="30" as="geometry" />
        </mxCell>
        <mxCell id="V1iUfVh5NWwp2OkV4ms_-70" style="edgeStyle=orthogonalEdgeStyle;rounded=0;orthogonalLoop=1;jettySize=auto;html=1;dashed=1;endArrow=block;endFill=0;" edge="1" parent="1" source="V1iUfVh5NWwp2OkV4ms_-66">
          <mxGeometry relative="1" as="geometry">
            <mxPoint x="1670" y="710" as="targetPoint" />
          </mxGeometry>
        </mxCell>
        <mxCell id="V1iUfVh5NWwp2OkV4ms_-71" value="&amp;lt;&amp;lt;Componente Serviço&amp;gt;&amp;gt;&lt;div&gt;Receber dados vitais&lt;/div&gt;" style="swimlane;fontStyle=1;align=center;verticalAlign=top;childLayout=stackLayout;horizontal=1;startSize=40;horizontalStack=0;resizeParent=1;resizeParentMax=0;resizeLast=0;collapsible=1;marginBottom=0;whiteSpace=wrap;html=1;" vertex="1" parent="1">
          <mxGeometry x="1270" y="1080" width="220" height="70" as="geometry" />
        </mxCell>
        <mxCell id="V1iUfVh5NWwp2OkV4ms_-72" value="+ Receber dados vitais ()" style="text;strokeColor=none;fillColor=none;align=left;verticalAlign=top;spacingLeft=4;spacingRight=4;overflow=hidden;rotatable=0;points=[[0,0.5],[1,0.5]];portConstraint=eastwest;whiteSpace=wrap;html=1;" vertex="1" parent="V1iUfVh5NWwp2OkV4ms_-71">
          <mxGeometry y="40" width="220" height="30" as="geometry" />
        </mxCell>
        <mxCell id="V1iUfVh5NWwp2OkV4ms_-73" value="&amp;lt;&amp;lt;Componente Serviço&amp;gt;&amp;gt;&lt;div&gt;Comparar sinais vitais&lt;/div&gt;" style="swimlane;fontStyle=1;align=center;verticalAlign=top;childLayout=stackLayout;horizontal=1;startSize=40;horizontalStack=0;resizeParent=1;resizeParentMax=0;resizeLast=0;collapsible=1;marginBottom=0;whiteSpace=wrap;html=1;" vertex="1" parent="1">
          <mxGeometry x="1500" y="1080" width="220" height="70" as="geometry" />
        </mxCell>
        <mxCell id="V1iUfVh5NWwp2OkV4ms_-74" value="+ Comparar sinais vitais ()&lt;span style=&quot;color: rgba(0, 0, 0, 0); font-family: monospace; font-size: 0px; text-wrap-mode: nowrap;&quot;&gt;%3CmxGraphModel%3E%3Croot%3E%3CmxCell%20id%3D%220%22%2F%3E%3CmxCell%20id%3D%221%22%20parent%3D%220%22%2F%3E%3CmxCell%20id%3D%222%22%20value%3D%22%26amp%3Blt%3B%26amp%3Blt%3BInterface%20Servi%C3%A7o%26amp%3Bgt%3B%26amp%3Bgt%3B%26lt%3Bdiv%26gt%3BGerenciar%20Conta%26lt%3B%2Fdiv%26gt%3B%22%20style%3D%22swimlane%3BfontStyle%3D1%3Balign%3Dcenter%3BverticalAlign%3Dtop%3BchildLayout%3DstackLayout%3Bhorizontal%3D1%3BstartSize%3D40%3BhorizontalStack%3D0%3BresizeParent%3D1%3BresizeParentMax%3D0%3BresizeLast%3D0%3Bcollapsible%3D1%3BmarginBottom%3D0%3BwhiteSpace%3Dwrap%3Bhtml%3D1%3B%22%20vertex%3D%221%22%20parent%3D%221%22%3E%3CmxGeometry%20x%3D%22290%22%20y%3D%22490%22%20width%3D%22220%22%20height%3D%22140%22%20as%3D%22geometry%22%2F%3E%3C%2FmxCell%3E%3CmxCell%20id%3D%223%22%20value%3D%22%2B%20Atribuir%20ID%20(ID%3A%20string)%3A%20Dados%20Gerenciar%20Conta%26amp%3Bnbsp%3B%22%20style%3D%22text%3BstrokeColor%3Dnone%3BfillColor%3Dnone%3Balign%3Dleft%3BverticalAlign%3Dtop%3BspacingLeft%3D4%3BspacingRight%3D4%3Boverflow%3Dhidden%3Brotatable%3D0%3Bpoints%3D%5B%5B0%2C0.5%5D%2C%5B1%2C0.5%5D%5D%3BportConstraint%3Deastwest%3BwhiteSpace%3Dwrap%3Bhtml%3D1%3B%22%20vertex%3D%221%22%20parent%3D%222%22%3E%3CmxGeometry%20y%3D%2240%22%20width%3D%22220%22%20height%3D%2240%22%20as%3D%22geometry%22%2F%3E%3C%2FmxCell%3E%3CmxCell%20id%3D%224%22%20value%3D%22%22%20style%3D%22line%3BstrokeWidth%3D1%3BfillColor%3Dnone%3Balign%3Dleft%3BverticalAlign%3Dmiddle%3BspacingTop%3D-1%3BspacingLeft%3D3%3BspacingRight%3D3%3Brotatable%3D0%3BlabelPosition%3Dright%3Bpoints%3D%5B%5D%3BportConstraint%3Deastwest%3BstrokeColor%3Dinherit%3B%22%20vertex%3D%221%22%20parent%3D%222%22%3E%3CmxGeometry%20y%3D%2280%22%20width%3D%22220%22%20height%3D%228%22%20as%3D%22geometry%22%2F%3E%3C%2FmxCell%3E%3CmxCell%20id%3D%225%22%20value%3D%22%2B%20Cadastrar%20usu%C3%A1rio%20(Gerenciar%20Conta%3A%20Dados%20Gerenciar%20Conta)%3A%26amp%3Bnbsp%3B%22%20style%3D%22text%3BstrokeColor%3Dnone%3BfillColor%3Dnone%3Balign%3Dleft%3BverticalAlign%3Dtop%3BspacingLeft%3D4%3BspacingRight%3D4%3Boverflow%3Dhidden%3Brotatable%3D0%3Bpoints%3D%5B%5B0%2C0.5%5D%2C%5B1%2C0.5%5D%5D%3BportConstraint%3Deastwest%3BwhiteSpace%3Dwrap%3Bhtml%3D1%3B%22%20vertex%3D%221%22%20parent%3D%222%22%3E%3CmxGeometry%20y%3D%2288%22%20width%3D%22220%22%20height%3D%2252%22%20as%3D%22geometry%22%2F%3E%3C%2FmxCell%3E%3C%2Froot%3E%3C%2FmxGraphModel&lt;/span&gt;" style="text;strokeColor=none;fillColor=none;align=left;verticalAlign=top;spacingLeft=4;spacingRight=4;overflow=hidden;rotatable=0;points=[[0,0.5],[1,0.5]];portConstraint=eastwest;whiteSpace=wrap;html=1;" vertex="1" parent="V1iUfVh5NWwp2OkV4ms_-73">
          <mxGeometry y="40" width="220" height="30" as="geometry" />
        </mxCell>
        <mxCell id="V1iUfVh5NWwp2OkV4ms_-75" value="Use" style="endArrow=open;html=1;rounded=0;exitX=0.486;exitY=1.067;exitDx=0;exitDy=0;exitPerimeter=0;entryX=0.5;entryY=0;entryDx=0;entryDy=0;endFill=0;dashed=1;" edge="1" parent="1" source="V1iUfVh5NWwp2OkV4ms_-87" target="V1iUfVh5NWwp2OkV4ms_-71">
          <mxGeometry width="50" height="50" relative="1" as="geometry">
            <mxPoint x="1687.58" y="1020.0000000000001" as="sourcePoint" />
            <mxPoint x="1520" y="969.37" as="targetPoint" />
          </mxGeometry>
        </mxCell>
        <mxCell id="V1iUfVh5NWwp2OkV4ms_-76" value="Use" style="endArrow=open;html=1;rounded=0;entryX=0.5;entryY=0;entryDx=0;entryDy=0;endFill=0;dashed=1;exitX=0.5;exitY=1;exitDx=0;exitDy=0;exitPerimeter=0;" edge="1" parent="1" target="V1iUfVh5NWwp2OkV4ms_-73" source="V1iUfVh5NWwp2OkV4ms_-87">
          <mxGeometry width="50" height="50" relative="1" as="geometry">
            <mxPoint x="1760" y="1020" as="sourcePoint" />
            <mxPoint x="1500" y="970" as="targetPoint" />
          </mxGeometry>
        </mxCell>
        <mxCell id="V1iUfVh5NWwp2OkV4ms_-77" value="&amp;lt;&amp;lt;Classes&amp;gt;&amp;gt;&lt;div&gt;Gerenciar Sinais Vitais&lt;/div&gt;" style="swimlane;fontStyle=1;align=center;verticalAlign=top;childLayout=stackLayout;horizontal=1;startSize=40;horizontalStack=0;resizeParent=1;resizeParentMax=0;resizeLast=0;collapsible=1;marginBottom=0;whiteSpace=wrap;html=1;" vertex="1" parent="1">
          <mxGeometry x="1610" y="1279.37" width="160" height="66" as="geometry" />
        </mxCell>
        <mxCell id="V1iUfVh5NWwp2OkV4ms_-78" value="+ Buscar ()" style="text;strokeColor=none;fillColor=none;align=left;verticalAlign=top;spacingLeft=4;spacingRight=4;overflow=hidden;rotatable=0;points=[[0,0.5],[1,0.5]];portConstraint=eastwest;whiteSpace=wrap;html=1;" vertex="1" parent="V1iUfVh5NWwp2OkV4ms_-77">
          <mxGeometry y="40" width="160" height="26" as="geometry" />
        </mxCell>
        <mxCell id="V1iUfVh5NWwp2OkV4ms_-80" value="Use" style="endArrow=open;html=1;rounded=0;exitX=0.485;exitY=1.034;exitDx=0;exitDy=0;exitPerimeter=0;entryX=0.452;entryY=-0.008;entryDx=0;entryDy=0;endFill=0;dashed=1;entryPerimeter=0;" edge="1" parent="1" source="V1iUfVh5NWwp2OkV4ms_-72" target="V1iUfVh5NWwp2OkV4ms_-77">
          <mxGeometry width="50" height="50" relative="1" as="geometry">
            <mxPoint x="1698" y="1020.37" as="sourcePoint" />
            <mxPoint x="1520" y="1109.37" as="targetPoint" />
          </mxGeometry>
        </mxCell>
        <mxCell id="V1iUfVh5NWwp2OkV4ms_-81" value="Use" style="endArrow=open;html=1;rounded=0;exitX=0.515;exitY=1.048;exitDx=0;exitDy=0;exitPerimeter=0;entryX=0.474;entryY=-0.008;entryDx=0;entryDy=0;endFill=0;dashed=1;entryPerimeter=0;" edge="1" parent="1" source="V1iUfVh5NWwp2OkV4ms_-74" target="V1iUfVh5NWwp2OkV4ms_-77">
          <mxGeometry width="50" height="50" relative="1" as="geometry">
            <mxPoint x="1800" y="1180.37" as="sourcePoint" />
            <mxPoint x="1983" y="1289.37" as="targetPoint" />
          </mxGeometry>
        </mxCell>
        <mxCell id="V1iUfVh5NWwp2OkV4ms_-82" value="&amp;lt;&amp;lt;node&amp;gt;&amp;gt;&lt;div&gt;Armazenamento local&lt;/div&gt;" style="html=1;whiteSpace=wrap;" vertex="1" parent="1">
          <mxGeometry x="1635" y="1390" width="110" height="50" as="geometry" />
        </mxCell>
        <mxCell id="V1iUfVh5NWwp2OkV4ms_-83" value="Use" style="edgeStyle=orthogonalEdgeStyle;rounded=0;orthogonalLoop=1;jettySize=auto;html=1;exitX=0.5;exitY=0;exitDx=0;exitDy=0;entryX=0.494;entryY=1.041;entryDx=0;entryDy=0;entryPerimeter=0;endArrow=none;startFill=0;startArrow=open;dashed=1;" edge="1" parent="1" source="V1iUfVh5NWwp2OkV4ms_-82" target="V1iUfVh5NWwp2OkV4ms_-78">
          <mxGeometry relative="1" as="geometry">
            <mxPoint x="1689.8400000000001" y="1371.11" as="targetPoint" />
          </mxGeometry>
        </mxCell>
        <mxCell id="V1iUfVh5NWwp2OkV4ms_-88" value="&amp;lt;&amp;lt;Componente Serviço&amp;gt;&amp;gt;&lt;div&gt;Armazenar sinais vitais&lt;/div&gt;" style="swimlane;fontStyle=1;align=center;verticalAlign=top;childLayout=stackLayout;horizontal=1;startSize=40;horizontalStack=0;resizeParent=1;resizeParentMax=0;resizeLast=0;collapsible=1;marginBottom=0;whiteSpace=wrap;html=1;" vertex="1" parent="1">
          <mxGeometry x="1730" y="1080" width="220" height="70" as="geometry" />
        </mxCell>
        <mxCell id="V1iUfVh5NWwp2OkV4ms_-89" value="+ Armazenar sinais vitais ()&lt;span style=&quot;color: rgba(0, 0, 0, 0); font-family: monospace; font-size: 0px; text-wrap-mode: nowrap;&quot;&gt;%3CmxGraphModel%3E%3Croot%3E%3CmxCell%20id%3D%220%22%2F%3E%3CmxCell%20id%3D%221%22%20parent%3D%220%22%2F%3E%3CmxCell%20id%3D%222%22%20value%3D%22%26amp%3Blt%3B%26amp%3Blt%3BInterface%20Servi%C3%A7o%26amp%3Bgt%3B%26amp%3Bgt%3B%26lt%3Bdiv%26gt%3BGerenciar%20Conta%26lt%3B%2Fdiv%26gt%3B%22%20style%3D%22swimlane%3BfontStyle%3D1%3Balign%3Dcenter%3BverticalAlign%3Dtop%3BchildLayout%3DstackLayout%3Bhorizontal%3D1%3BstartSize%3D40%3BhorizontalStack%3D0%3BresizeParent%3D1%3BresizeParentMax%3D0%3BresizeLast%3D0%3Bcollapsible%3D1%3BmarginBottom%3D0%3BwhiteSpace%3Dwrap%3Bhtml%3D1%3B%22%20vertex%3D%221%22%20parent%3D%221%22%3E%3CmxGeometry%20x%3D%22290%22%20y%3D%22490%22%20width%3D%22220%22%20height%3D%22140%22%20as%3D%22geometry%22%2F%3E%3C%2FmxCell%3E%3CmxCell%20id%3D%223%22%20value%3D%22%2B%20Atribuir%20ID%20(ID%3A%20string)%3A%20Dados%20Gerenciar%20Conta%26amp%3Bnbsp%3B%22%20style%3D%22text%3BstrokeColor%3Dnone%3BfillColor%3Dnone%3Balign%3Dleft%3BverticalAlign%3Dtop%3BspacingLeft%3D4%3BspacingRight%3D4%3Boverflow%3Dhidden%3Brotatable%3D0%3Bpoints%3D%5B%5B0%2C0.5%5D%2C%5B1%2C0.5%5D%5D%3BportConstraint%3Deastwest%3BwhiteSpace%3Dwrap%3Bhtml%3D1%3B%22%20vertex%3D%221%22%20parent%3D%222%22%3E%3CmxGeometry%20y%3D%2240%22%20width%3D%22220%22%20height%3D%2240%22%20as%3D%22geometry%22%2F%3E%3C%2FmxCell%3E%3CmxCell%20id%3D%224%22%20value%3D%22%22%20style%3D%22line%3BstrokeWidth%3D1%3BfillColor%3Dnone%3Balign%3Dleft%3BverticalAlign%3Dmiddle%3BspacingTop%3D-1%3BspacingLeft%3D3%3BspacingRight%3D3%3Brotatable%3D0%3BlabelPosition%3Dright%3Bpoints%3D%5B%5D%3BportConstraint%3Deastwest%3BstrokeColor%3Dinherit%3B%22%20vertex%3D%221%22%20parent%3D%222%22%3E%3CmxGeometry%20y%3D%2280%22%20width%3D%22220%22%20height%3D%228%22%20as%3D%22geometry%22%2F%3E%3C%2FmxCell%3E%3CmxCell%20id%3D%225%22%20value%3D%22%2B%20Cadastrar%20usu%C3%A1rio%20(Gerenciar%20Conta%3A%20Dados%20Gerenciar%20Conta)%3A%26amp%3Bnbsp%3B%22%20style%3D%22text%3BstrokeColor%3Dnone%3BfillColor%3Dnone%3Balign%3Dleft%3BverticalAlign%3Dtop%3BspacingLeft%3D4%3BspacingRight%3D4%3Boverflow%3Dhidden%3Brotatable%3D0%3Bpoints%3D%5B%5B0%2C0.5%5D%2C%5B1%2C0.5%5D%5D%3BportConstraint%3Deastwest%3BwhiteSpace%3Dwrap%3Bhtml%3D1%3B%22%20vertex%3D%221%22%20parent%3D%222%22%3E%3CmxGeometry%20y%3D%2288%22%20width%3D%22220%22%20height%3D%2252%22%20as%3D%22geometry%22%2F%3E%3C%2FmxCell%3E%3C%2Froot%3E%3C%2FmxGraphModel&lt;/span&gt;" style="text;strokeColor=none;fillColor=none;align=left;verticalAlign=top;spacingLeft=4;spacingRight=4;overflow=hidden;rotatable=0;points=[[0,0.5],[1,0.5]];portConstraint=eastwest;whiteSpace=wrap;html=1;" vertex="1" parent="V1iUfVh5NWwp2OkV4ms_-88">
          <mxGeometry y="40" width="220" height="30" as="geometry" />
        </mxCell>
        <mxCell id="V1iUfVh5NWwp2OkV4ms_-90" value="&amp;lt;&amp;lt;Componente Serviço&amp;gt;&amp;gt;&lt;div&gt;Exibir sinais vitais&lt;/div&gt;" style="swimlane;fontStyle=1;align=center;verticalAlign=top;childLayout=stackLayout;horizontal=1;startSize=40;horizontalStack=0;resizeParent=1;resizeParentMax=0;resizeLast=0;collapsible=1;marginBottom=0;whiteSpace=wrap;html=1;" vertex="1" parent="1">
          <mxGeometry x="1958" y="1080" width="220" height="70" as="geometry" />
        </mxCell>
        <mxCell id="V1iUfVh5NWwp2OkV4ms_-91" value="+ Exibir sinais vitais ()&lt;span style=&quot;color: rgba(0, 0, 0, 0); font-family: monospace; font-size: 0px; text-wrap-mode: nowrap;&quot;&gt;%3CmxGraphModel%3E%3Croot%3E%3CmxCell%20id%3D%220%22%2F%3E%3CmxCell%20id%3D%221%22%20parent%3D%220%22%2F%3E%3CmxCell%20id%3D%222%22%20value%3D%22%26amp%3Blt%3B%26amp%3Blt%3BInterface%20Servi%C3%A7o%26amp%3Bgt%3B%26amp%3Bgt%3B%26lt%3Bdiv%26gt%3BGerenciar%20Conta%26lt%3B%2Fdiv%26gt%3B%22%20style%3D%22swimlane%3BfontStyle%3D1%3Balign%3Dcenter%3BverticalAlign%3Dtop%3BchildLayout%3DstackLayout%3Bhorizontal%3D1%3BstartSize%3D40%3BhorizontalStack%3D0%3BresizeParent%3D1%3BresizeParentMax%3D0%3BresizeLast%3D0%3Bcollapsible%3D1%3BmarginBottom%3D0%3BwhiteSpace%3Dwrap%3Bhtml%3D1%3B%22%20vertex%3D%221%22%20parent%3D%221%22%3E%3CmxGeometry%20x%3D%22290%22%20y%3D%22490%22%20width%3D%22220%22%20height%3D%22140%22%20as%3D%22geometry%22%2F%3E%3C%2FmxCell%3E%3CmxCell%20id%3D%223%22%20value%3D%22%2B%20Atribuir%20ID%20(ID%3A%20string)%3A%20Dados%20Gerenciar%20Conta%26amp%3Bnbsp%3B%22%20style%3D%22text%3BstrokeColor%3Dnone%3BfillColor%3Dnone%3Balign%3Dleft%3BverticalAlign%3Dtop%3BspacingLeft%3D4%3BspacingRight%3D4%3Boverflow%3Dhidden%3Brotatable%3D0%3Bpoints%3D%5B%5B0%2C0.5%5D%2C%5B1%2C0.5%5D%5D%3BportConstraint%3Deastwest%3BwhiteSpace%3Dwrap%3Bhtml%3D1%3B%22%20vertex%3D%221%22%20parent%3D%222%22%3E%3CmxGeometry%20y%3D%2240%22%20width%3D%22220%22%20height%3D%2240%22%20as%3D%22geometry%22%2F%3E%3C%2FmxCell%3E%3CmxCell%20id%3D%224%22%20value%3D%22%22%20style%3D%22line%3BstrokeWidth%3D1%3BfillColor%3Dnone%3Balign%3Dleft%3BverticalAlign%3Dmiddle%3BspacingTop%3D-1%3BspacingLeft%3D3%3BspacingRight%3D3%3Brotatable%3D0%3BlabelPosition%3Dright%3Bpoints%3D%5B%5D%3BportConstraint%3Deastwest%3BstrokeColor%3Dinherit%3B%22%20vertex%3D%221%22%20parent%3D%222%22%3E%3CmxGeometry%20y%3D%2280%22%20width%3D%22220%22%20height%3D%228%22%20as%3D%22geometry%22%2F%3E%3C%2FmxCell%3E%3CmxCell%20id%3D%225%22%20value%3D%22%2B%20Cadastrar%20usu%C3%A1rio%20(Gerenciar%20Conta%3A%20Dados%20Gerenciar%20Conta)%3A%26amp%3Bnbsp%3B%22%20style%3D%22text%3BstrokeColor%3Dnone%3BfillColor%3Dnone%3Balign%3Dleft%3BverticalAlign%3Dtop%3BspacingLeft%3D4%3BspacingRight%3D4%3Boverflow%3Dhidden%3Brotatable%3D0%3Bpoints%3D%5B%5B0%2C0.5%5D%2C%5B1%2C0.5%5D%5D%3BportConstraint%3Deastwest%3BwhiteSpace%3Dwrap%3Bhtml%3D1%3B%22%20vertex%3D%221%22%20parent%3D%222%22%3E%3CmxGeometry%20y%3D%2288%22%20width%3D%22220%22%20height%3D%2252%22%20as%3D%22geometry%22%2F%3E%3C%2FmxCell%3E%3C%2Froot%3E%3C%2FmxGraphModel&lt;/span&gt;" style="text;strokeColor=none;fillColor=none;align=left;verticalAlign=top;spacingLeft=4;spacingRight=4;overflow=hidden;rotatable=0;points=[[0,0.5],[1,0.5]];portConstraint=eastwest;whiteSpace=wrap;html=1;" vertex="1" parent="V1iUfVh5NWwp2OkV4ms_-90">
          <mxGeometry y="40" width="220" height="30" as="geometry" />
        </mxCell>
        <mxCell id="V1iUfVh5NWwp2OkV4ms_-92" value="Use" style="endArrow=open;html=1;rounded=0;entryX=0.5;entryY=0;entryDx=0;entryDy=0;endFill=0;dashed=1;exitX=0.495;exitY=1.067;exitDx=0;exitDy=0;exitPerimeter=0;" edge="1" parent="1" source="V1iUfVh5NWwp2OkV4ms_-87" target="V1iUfVh5NWwp2OkV4ms_-88">
          <mxGeometry width="50" height="50" relative="1" as="geometry">
            <mxPoint x="1680" y="940" as="sourcePoint" />
            <mxPoint x="1620" y="1090" as="targetPoint" />
          </mxGeometry>
        </mxCell>
        <mxCell id="V1iUfVh5NWwp2OkV4ms_-93" value="Use" style="endArrow=open;html=1;rounded=0;entryX=0.5;entryY=0;entryDx=0;entryDy=0;endFill=0;dashed=1;exitX=0.505;exitY=1.071;exitDx=0;exitDy=0;exitPerimeter=0;" edge="1" parent="1" source="V1iUfVh5NWwp2OkV4ms_-87" target="V1iUfVh5NWwp2OkV4ms_-90">
          <mxGeometry width="50" height="50" relative="1" as="geometry">
            <mxPoint x="1690" y="950" as="sourcePoint" />
            <mxPoint x="1850" y="1090" as="targetPoint" />
          </mxGeometry>
        </mxCell>
        <mxCell id="V1iUfVh5NWwp2OkV4ms_-94" value="Use" style="endArrow=open;html=1;rounded=0;exitX=0.504;exitY=1.078;exitDx=0;exitDy=0;exitPerimeter=0;endFill=0;dashed=1;" edge="1" parent="1" source="V1iUfVh5NWwp2OkV4ms_-89">
          <mxGeometry width="50" height="50" relative="1" as="geometry">
            <mxPoint x="1623" y="1161" as="sourcePoint" />
            <mxPoint x="1690" y="1280" as="targetPoint" />
          </mxGeometry>
        </mxCell>
        <mxCell id="V1iUfVh5NWwp2OkV4ms_-95" value="Use" style="endArrow=open;html=1;rounded=0;exitX=0.547;exitY=1.022;exitDx=0;exitDy=0;exitPerimeter=0;endFill=0;dashed=1;" edge="1" parent="1" source="V1iUfVh5NWwp2OkV4ms_-91">
          <mxGeometry width="50" height="50" relative="1" as="geometry">
            <mxPoint x="1851" y="1162" as="sourcePoint" />
            <mxPoint x="1690" y="1280" as="targetPoint" />
          </mxGeometry>
        </mxCell>
        <mxCell id="V1iUfVh5NWwp2OkV4ms_-96" value="&amp;lt;&amp;lt;Interface Serviço&amp;gt;&amp;gt;&lt;div&gt;Gerenciar Relatório&lt;/div&gt;" style="swimlane;fontStyle=1;align=center;verticalAlign=top;childLayout=stackLayout;horizontal=1;startSize=40;horizontalStack=0;resizeParent=1;resizeParentMax=0;resizeLast=0;collapsible=1;marginBottom=0;whiteSpace=wrap;html=1;" vertex="1" parent="1">
          <mxGeometry x="2675" y="542" width="220" height="184" as="geometry" />
        </mxCell>
        <mxCell id="V1iUfVh5NWwp2OkV4ms_-97" value="+ Gerar relatório de saúde (relatório: Dados Gerenciar Relatório)" style="text;strokeColor=none;fillColor=none;align=left;verticalAlign=top;spacingLeft=4;spacingRight=4;overflow=hidden;rotatable=0;points=[[0,0.5],[1,0.5]];portConstraint=eastwest;whiteSpace=wrap;html=1;" vertex="1" parent="V1iUfVh5NWwp2OkV4ms_-96">
          <mxGeometry y="40" width="220" height="40" as="geometry" />
        </mxCell>
        <mxCell id="V1iUfVh5NWwp2OkV4ms_-98" value="+ Criar período de envio de relatório (TempoRelatorioDias: int)" style="text;strokeColor=none;fillColor=none;align=left;verticalAlign=top;spacingLeft=4;spacingRight=4;overflow=hidden;rotatable=0;points=[[0,0.5],[1,0.5]];portConstraint=eastwest;whiteSpace=wrap;html=1;" vertex="1" parent="V1iUfVh5NWwp2OkV4ms_-96">
          <mxGeometry y="80" width="220" height="52" as="geometry" />
        </mxCell>
        <mxCell id="V1iUfVh5NWwp2OkV4ms_-117" value="+ Envio de relatório (): relatório: Dados Gerenciar Relatório" style="text;strokeColor=none;fillColor=none;align=left;verticalAlign=top;spacingLeft=4;spacingRight=4;overflow=hidden;rotatable=0;points=[[0,0.5],[1,0.5]];portConstraint=eastwest;whiteSpace=wrap;html=1;" vertex="1" parent="V1iUfVh5NWwp2OkV4ms_-96">
          <mxGeometry y="132" width="220" height="52" as="geometry" />
        </mxCell>
        <mxCell id="V1iUfVh5NWwp2OkV4ms_-99" value="&amp;lt;&amp;lt;Mediação&amp;gt;&amp;gt;&lt;div&gt;Gerenciar Relatório&amp;nbsp;&lt;span style=&quot;background-color: transparent; color: light-dark(rgb(0, 0, 0), rgb(255, 255, 255));&quot;&gt;Mediação&lt;/span&gt;&lt;/div&gt;" style="swimlane;fontStyle=1;align=center;verticalAlign=top;childLayout=stackLayout;horizontal=1;startSize=40;horizontalStack=0;resizeParent=1;resizeParentMax=0;resizeLast=0;collapsible=1;marginBottom=0;whiteSpace=wrap;html=1;" vertex="1" parent="1">
          <mxGeometry x="2675" y="782" width="220" height="168" as="geometry" />
        </mxCell>
        <mxCell id="V1iUfVh5NWwp2OkV4ms_-100" value="&amp;lt;&amp;lt;Interface Serviço&amp;gt;&amp;gt; Gerenciar Conta" style="text;strokeColor=none;fillColor=none;align=left;verticalAlign=top;spacingLeft=4;spacingRight=4;overflow=hidden;rotatable=0;points=[[0,0.5],[1,0.5]];portConstraint=eastwest;whiteSpace=wrap;html=1;" vertex="1" parent="V1iUfVh5NWwp2OkV4ms_-99">
          <mxGeometry y="40" width="220" height="30" as="geometry" />
        </mxCell>
        <mxCell id="V1iUfVh5NWwp2OkV4ms_-118" value="+ Gerar relatório de saúde ()" style="text;strokeColor=none;fillColor=none;align=left;verticalAlign=top;spacingLeft=4;spacingRight=4;overflow=hidden;rotatable=0;points=[[0,0.5],[1,0.5]];portConstraint=eastwest;whiteSpace=wrap;html=1;" vertex="1" parent="V1iUfVh5NWwp2OkV4ms_-99">
          <mxGeometry y="70" width="220" height="40" as="geometry" />
        </mxCell>
        <mxCell id="V1iUfVh5NWwp2OkV4ms_-119" value="+ Criar período de envio de relatório ()" style="text;strokeColor=none;fillColor=none;align=left;verticalAlign=top;spacingLeft=4;spacingRight=4;overflow=hidden;rotatable=0;points=[[0,0.5],[1,0.5]];portConstraint=eastwest;whiteSpace=wrap;html=1;" vertex="1" parent="V1iUfVh5NWwp2OkV4ms_-99">
          <mxGeometry y="110" width="220" height="30" as="geometry" />
        </mxCell>
        <mxCell id="V1iUfVh5NWwp2OkV4ms_-120" value="+ Envio de relatório ()" style="text;strokeColor=none;fillColor=none;align=left;verticalAlign=top;spacingLeft=4;spacingRight=4;overflow=hidden;rotatable=0;points=[[0,0.5],[1,0.5]];portConstraint=eastwest;whiteSpace=wrap;html=1;" vertex="1" parent="V1iUfVh5NWwp2OkV4ms_-99">
          <mxGeometry y="140" width="220" height="28" as="geometry" />
        </mxCell>
        <mxCell id="V1iUfVh5NWwp2OkV4ms_-103" style="edgeStyle=orthogonalEdgeStyle;rounded=0;orthogonalLoop=1;jettySize=auto;html=1;entryX=0.496;entryY=1.001;entryDx=0;entryDy=0;entryPerimeter=0;dashed=1;endArrow=block;endFill=0;" edge="1" parent="1" source="V1iUfVh5NWwp2OkV4ms_-99" target="V1iUfVh5NWwp2OkV4ms_-117">
          <mxGeometry relative="1" as="geometry" />
        </mxCell>
        <mxCell id="V1iUfVh5NWwp2OkV4ms_-104" value="&amp;lt;&amp;lt;Componente Serviço&amp;gt;&amp;gt;&lt;div&gt;&lt;span style=&quot;text-align: left;&quot;&gt;Gerenciar relatório de saúde&lt;/span&gt;&lt;/div&gt;" style="swimlane;fontStyle=1;align=center;verticalAlign=top;childLayout=stackLayout;horizontal=1;startSize=40;horizontalStack=0;resizeParent=1;resizeParentMax=0;resizeLast=0;collapsible=1;marginBottom=0;whiteSpace=wrap;html=1;" vertex="1" parent="1">
          <mxGeometry x="2430" y="1042" width="220" height="70" as="geometry" />
        </mxCell>
        <mxCell id="V1iUfVh5NWwp2OkV4ms_-105" value="+ Gerenciar relatório de saúde ()" style="text;strokeColor=none;fillColor=none;align=left;verticalAlign=top;spacingLeft=4;spacingRight=4;overflow=hidden;rotatable=0;points=[[0,0.5],[1,0.5]];portConstraint=eastwest;whiteSpace=wrap;html=1;" vertex="1" parent="V1iUfVh5NWwp2OkV4ms_-104">
          <mxGeometry y="40" width="220" height="30" as="geometry" />
        </mxCell>
        <mxCell id="V1iUfVh5NWwp2OkV4ms_-106" value="&amp;lt;&amp;lt;Componente Serviço&amp;gt;&amp;gt;&lt;div&gt;&lt;span style=&quot;text-align: left;&quot;&gt;Gerenciar período de envio de relatório&lt;/span&gt;&lt;/div&gt;&lt;div&gt;&lt;span style=&quot;font-weight: 400; text-align: left;&quot;&gt;&lt;br&gt;&lt;/span&gt;&lt;/div&gt;" style="swimlane;fontStyle=1;align=center;verticalAlign=top;childLayout=stackLayout;horizontal=1;startSize=40;horizontalStack=0;resizeParent=1;resizeParentMax=0;resizeLast=0;collapsible=1;marginBottom=0;whiteSpace=wrap;html=1;" vertex="1" parent="1">
          <mxGeometry x="2665" y="1042" width="240" height="70" as="geometry" />
        </mxCell>
        <mxCell id="V1iUfVh5NWwp2OkV4ms_-107" value="+ Gerenciar período de envio de relatório()" style="text;strokeColor=none;fillColor=none;align=left;verticalAlign=top;spacingLeft=4;spacingRight=4;overflow=hidden;rotatable=0;points=[[0,0.5],[1,0.5]];portConstraint=eastwest;whiteSpace=wrap;html=1;" vertex="1" parent="V1iUfVh5NWwp2OkV4ms_-106">
          <mxGeometry y="40" width="240" height="30" as="geometry" />
        </mxCell>
        <mxCell id="V1iUfVh5NWwp2OkV4ms_-108" value="Use" style="endArrow=open;html=1;rounded=0;entryX=0.5;entryY=0;entryDx=0;entryDy=0;endFill=0;dashed=1;exitX=0.477;exitY=1.016;exitDx=0;exitDy=0;exitPerimeter=0;" edge="1" parent="1" source="V1iUfVh5NWwp2OkV4ms_-120" target="V1iUfVh5NWwp2OkV4ms_-104">
          <mxGeometry width="50" height="50" relative="1" as="geometry">
            <mxPoint x="2775" y="999" as="sourcePoint" />
            <mxPoint x="2615" y="982" as="targetPoint" />
          </mxGeometry>
        </mxCell>
        <mxCell id="V1iUfVh5NWwp2OkV4ms_-109" value="Use" style="endArrow=open;html=1;rounded=0;entryX=0.5;entryY=0;entryDx=0;entryDy=0;endFill=0;dashed=1;exitX=0.481;exitY=1.001;exitDx=0;exitDy=0;exitPerimeter=0;" edge="1" parent="1" target="V1iUfVh5NWwp2OkV4ms_-106" source="V1iUfVh5NWwp2OkV4ms_-120">
          <mxGeometry width="50" height="50" relative="1" as="geometry">
            <mxPoint x="2796" y="998" as="sourcePoint" />
            <mxPoint x="2615" y="1122" as="targetPoint" />
          </mxGeometry>
        </mxCell>
        <mxCell id="V1iUfVh5NWwp2OkV4ms_-110" value="&amp;lt;&amp;lt;Classes&amp;gt;&amp;gt;&lt;div&gt;Gerenciar Relatório&lt;/div&gt;" style="swimlane;fontStyle=1;align=center;verticalAlign=top;childLayout=stackLayout;horizontal=1;startSize=40;horizontalStack=0;resizeParent=1;resizeParentMax=0;resizeLast=0;collapsible=1;marginBottom=0;whiteSpace=wrap;html=1;" vertex="1" parent="1">
          <mxGeometry x="2715" y="1212" width="160" height="92" as="geometry" />
        </mxCell>
        <mxCell id="V1iUfVh5NWwp2OkV4ms_-111" value="+ Criar ()" style="text;strokeColor=none;fillColor=none;align=left;verticalAlign=top;spacingLeft=4;spacingRight=4;overflow=hidden;rotatable=0;points=[[0,0.5],[1,0.5]];portConstraint=eastwest;whiteSpace=wrap;html=1;" vertex="1" parent="V1iUfVh5NWwp2OkV4ms_-110">
          <mxGeometry y="40" width="160" height="26" as="geometry" />
        </mxCell>
        <mxCell id="V1iUfVh5NWwp2OkV4ms_-112" value="+ Buscar ()" style="text;strokeColor=none;fillColor=none;align=left;verticalAlign=top;spacingLeft=4;spacingRight=4;overflow=hidden;rotatable=0;points=[[0,0.5],[1,0.5]];portConstraint=eastwest;whiteSpace=wrap;html=1;" vertex="1" parent="V1iUfVh5NWwp2OkV4ms_-110">
          <mxGeometry y="66" width="160" height="26" as="geometry" />
        </mxCell>
        <mxCell id="V1iUfVh5NWwp2OkV4ms_-113" value="Use" style="endArrow=open;html=1;rounded=0;exitX=0.485;exitY=1.034;exitDx=0;exitDy=0;exitPerimeter=0;entryX=0.5;entryY=0;entryDx=0;entryDy=0;endFill=0;dashed=1;" edge="1" parent="1" source="V1iUfVh5NWwp2OkV4ms_-105" target="V1iUfVh5NWwp2OkV4ms_-110">
          <mxGeometry width="50" height="50" relative="1" as="geometry">
            <mxPoint x="2793" y="1033" as="sourcePoint" />
            <mxPoint x="2615" y="1122" as="targetPoint" />
          </mxGeometry>
        </mxCell>
        <mxCell id="V1iUfVh5NWwp2OkV4ms_-114" value="Use" style="endArrow=open;html=1;rounded=0;exitX=0.515;exitY=1.048;exitDx=0;exitDy=0;exitPerimeter=0;entryX=0.5;entryY=0;entryDx=0;entryDy=0;endFill=0;dashed=1;" edge="1" parent="1" source="V1iUfVh5NWwp2OkV4ms_-107" target="V1iUfVh5NWwp2OkV4ms_-110">
          <mxGeometry width="50" height="50" relative="1" as="geometry">
            <mxPoint x="2895" y="1193" as="sourcePoint" />
            <mxPoint x="3078" y="1302" as="targetPoint" />
          </mxGeometry>
        </mxCell>
        <mxCell id="V1iUfVh5NWwp2OkV4ms_-115" value="&amp;lt;&amp;lt;node&amp;gt;&amp;gt;&lt;div&gt;Armazenamento local&lt;/div&gt;" style="html=1;whiteSpace=wrap;" vertex="1" parent="1">
          <mxGeometry x="2740" y="1362" width="110" height="50" as="geometry" />
        </mxCell>
        <mxCell id="V1iUfVh5NWwp2OkV4ms_-116" value="Use" style="edgeStyle=orthogonalEdgeStyle;rounded=0;orthogonalLoop=1;jettySize=auto;html=1;exitX=0.5;exitY=0;exitDx=0;exitDy=0;entryX=0.499;entryY=0.99;entryDx=0;entryDy=0;entryPerimeter=0;endArrow=none;startFill=0;startArrow=open;dashed=1;" edge="1" parent="1" source="V1iUfVh5NWwp2OkV4ms_-115" target="V1iUfVh5NWwp2OkV4ms_-112">
          <mxGeometry relative="1" as="geometry" />
        </mxCell>
        <mxCell id="V1iUfVh5NWwp2OkV4ms_-121" value="&amp;lt;&amp;lt;Componente Serviço&amp;gt;&amp;gt;&lt;div&gt;&lt;span style=&quot;text-align: left;&quot;&gt;Gerenciar período de envio de relatório&lt;/span&gt;&lt;/div&gt;&lt;div&gt;&lt;span style=&quot;font-weight: 400; text-align: left;&quot;&gt;&lt;br&gt;&lt;/span&gt;&lt;/div&gt;" style="swimlane;fontStyle=1;align=center;verticalAlign=top;childLayout=stackLayout;horizontal=1;startSize=40;horizontalStack=0;resizeParent=1;resizeParentMax=0;resizeLast=0;collapsible=1;marginBottom=0;whiteSpace=wrap;html=1;" vertex="1" parent="1">
          <mxGeometry x="2920" y="1042" width="240" height="70" as="geometry" />
        </mxCell>
        <mxCell id="V1iUfVh5NWwp2OkV4ms_-122" value="+ Gerenciar período de envio de relatório()" style="text;strokeColor=none;fillColor=none;align=left;verticalAlign=top;spacingLeft=4;spacingRight=4;overflow=hidden;rotatable=0;points=[[0,0.5],[1,0.5]];portConstraint=eastwest;whiteSpace=wrap;html=1;" vertex="1" parent="V1iUfVh5NWwp2OkV4ms_-121">
          <mxGeometry y="40" width="240" height="30" as="geometry" />
        </mxCell>
        <mxCell id="V1iUfVh5NWwp2OkV4ms_-123" value="Use" style="endArrow=open;html=1;rounded=0;entryX=0.5;entryY=0;entryDx=0;entryDy=0;endFill=0;dashed=1;exitX=0.487;exitY=1.011;exitDx=0;exitDy=0;exitPerimeter=0;" edge="1" parent="1" source="V1iUfVh5NWwp2OkV4ms_-120" target="V1iUfVh5NWwp2OkV4ms_-121">
          <mxGeometry width="50" height="50" relative="1" as="geometry">
            <mxPoint x="2796" y="1005" as="sourcePoint" />
            <mxPoint x="2860" y="1122" as="targetPoint" />
          </mxGeometry>
        </mxCell>
        <mxCell id="V1iUfVh5NWwp2OkV4ms_-124" value="Use" style="endArrow=open;html=1;rounded=0;endFill=0;dashed=1;exitX=0.538;exitY=0.997;exitDx=0;exitDy=0;exitPerimeter=0;" edge="1" parent="1" source="V1iUfVh5NWwp2OkV4ms_-122">
          <mxGeometry width="50" height="50" relative="1" as="geometry">
            <mxPoint x="2995" y="1172" as="sourcePoint" />
            <mxPoint x="2795" y="1212" as="targetPoint" />
          </mxGeometry>
        </mxCell>
        <mxCell id="V1iUfVh5NWwp2OkV4ms_-125" value="&amp;lt;&amp;lt;Interface Serviço&amp;gt;&amp;gt;&lt;div&gt;Gerenciar Emergência&lt;/div&gt;" style="swimlane;fontStyle=1;align=center;verticalAlign=top;childLayout=stackLayout;horizontal=1;startSize=40;horizontalStack=0;resizeParent=1;resizeParentMax=0;resizeLast=0;collapsible=1;marginBottom=0;whiteSpace=wrap;html=1;" vertex="1" parent="1">
          <mxGeometry x="3465" y="550" width="220" height="144" as="geometry" />
        </mxCell>
        <mxCell id="V1iUfVh5NWwp2OkV4ms_-127" value="+ Chamada de emergência (emergencia: Dados Gerenciar Emergência)" style="text;strokeColor=none;fillColor=none;align=left;verticalAlign=top;spacingLeft=4;spacingRight=4;overflow=hidden;rotatable=0;points=[[0,0.5],[1,0.5]];portConstraint=eastwest;whiteSpace=wrap;html=1;" vertex="1" parent="V1iUfVh5NWwp2OkV4ms_-125">
          <mxGeometry y="40" width="220" height="52" as="geometry" />
        </mxCell>
        <mxCell id="V1iUfVh5NWwp2OkV4ms_-128" value="+ Envio de relatório emergencial (): emergencia: Dados Gerenciar Emergência" style="text;strokeColor=none;fillColor=none;align=left;verticalAlign=top;spacingLeft=4;spacingRight=4;overflow=hidden;rotatable=0;points=[[0,0.5],[1,0.5]];portConstraint=eastwest;whiteSpace=wrap;html=1;" vertex="1" parent="V1iUfVh5NWwp2OkV4ms_-125">
          <mxGeometry y="92" width="220" height="52" as="geometry" />
        </mxCell>
        <mxCell id="V1iUfVh5NWwp2OkV4ms_-129" value="&amp;lt;&amp;lt;Mediação&amp;gt;&amp;gt;&lt;div&gt;Gerenciar Emergência&amp;nbsp;&lt;span style=&quot;background-color: transparent; color: light-dark(rgb(0, 0, 0), rgb(255, 255, 255));&quot;&gt;Mediação&lt;/span&gt;&lt;/div&gt;" style="swimlane;fontStyle=1;align=center;verticalAlign=top;childLayout=stackLayout;horizontal=1;startSize=40;horizontalStack=0;resizeParent=1;resizeParentMax=0;resizeLast=0;collapsible=1;marginBottom=0;whiteSpace=wrap;html=1;" vertex="1" parent="1">
          <mxGeometry x="3465" y="790" width="220" height="140" as="geometry" />
        </mxCell>
        <mxCell id="V1iUfVh5NWwp2OkV4ms_-130" value="&amp;lt;&amp;lt;Interface Serviço&amp;gt;&amp;gt; Gerenciar Conta" style="text;strokeColor=none;fillColor=none;align=left;verticalAlign=top;spacingLeft=4;spacingRight=4;overflow=hidden;rotatable=0;points=[[0,0.5],[1,0.5]];portConstraint=eastwest;whiteSpace=wrap;html=1;" vertex="1" parent="V1iUfVh5NWwp2OkV4ms_-129">
          <mxGeometry y="40" width="220" height="30" as="geometry" />
        </mxCell>
        <mxCell id="V1iUfVh5NWwp2OkV4ms_-131" value="+ Chamada de emergência" style="text;strokeColor=none;fillColor=none;align=left;verticalAlign=top;spacingLeft=4;spacingRight=4;overflow=hidden;rotatable=0;points=[[0,0.5],[1,0.5]];portConstraint=eastwest;whiteSpace=wrap;html=1;" vertex="1" parent="V1iUfVh5NWwp2OkV4ms_-129">
          <mxGeometry y="70" width="220" height="40" as="geometry" />
        </mxCell>
        <mxCell id="V1iUfVh5NWwp2OkV4ms_-132" value="+ Envio de relatório emergencial" style="text;strokeColor=none;fillColor=none;align=left;verticalAlign=top;spacingLeft=4;spacingRight=4;overflow=hidden;rotatable=0;points=[[0,0.5],[1,0.5]];portConstraint=eastwest;whiteSpace=wrap;html=1;" vertex="1" parent="V1iUfVh5NWwp2OkV4ms_-129">
          <mxGeometry y="110" width="220" height="30" as="geometry" />
        </mxCell>
        <mxCell id="V1iUfVh5NWwp2OkV4ms_-134" style="edgeStyle=orthogonalEdgeStyle;rounded=0;orthogonalLoop=1;jettySize=auto;html=1;entryX=0.496;entryY=1.001;entryDx=0;entryDy=0;entryPerimeter=0;dashed=1;endArrow=block;endFill=0;" edge="1" parent="1" source="V1iUfVh5NWwp2OkV4ms_-129" target="V1iUfVh5NWwp2OkV4ms_-128">
          <mxGeometry relative="1" as="geometry" />
        </mxCell>
        <mxCell id="V1iUfVh5NWwp2OkV4ms_-135" value="&amp;lt;&amp;lt;Componente Serviço&amp;gt;&amp;gt;&lt;div&gt;&lt;span style=&quot;text-align: left;&quot;&gt;Gerenciar c&lt;/span&gt;&lt;span style=&quot;text-align: left; background-color: transparent; color: light-dark(rgb(0, 0, 0), rgb(255, 255, 255));&quot;&gt;hamada de emergência&lt;/span&gt;&lt;/div&gt;" style="swimlane;fontStyle=1;align=center;verticalAlign=top;childLayout=stackLayout;horizontal=1;startSize=40;horizontalStack=0;resizeParent=1;resizeParentMax=0;resizeLast=0;collapsible=1;marginBottom=0;whiteSpace=wrap;html=1;" vertex="1" parent="1">
          <mxGeometry x="3308" y="1050" width="220" height="70" as="geometry" />
        </mxCell>
        <mxCell id="V1iUfVh5NWwp2OkV4ms_-136" value="+ Chamada de emergência ()" style="text;strokeColor=none;fillColor=none;align=left;verticalAlign=top;spacingLeft=4;spacingRight=4;overflow=hidden;rotatable=0;points=[[0,0.5],[1,0.5]];portConstraint=eastwest;whiteSpace=wrap;html=1;" vertex="1" parent="V1iUfVh5NWwp2OkV4ms_-135">
          <mxGeometry y="40" width="220" height="30" as="geometry" />
        </mxCell>
        <mxCell id="V1iUfVh5NWwp2OkV4ms_-137" value="&amp;lt;&amp;lt;Componente Serviço&amp;gt;&amp;gt;&lt;div&gt;&lt;span style=&quot;text-align: left;&quot;&gt;Gerenciar e&lt;/span&gt;&lt;span style=&quot;text-align: left;&quot;&gt;nvio de relatório emergencial&lt;/span&gt;&lt;span style=&quot;text-align: left; background-color: transparent; color: light-dark(rgb(0, 0, 0), rgb(255, 255, 255));&quot;&gt;&amp;nbsp;&lt;/span&gt;&lt;/div&gt;" style="swimlane;fontStyle=1;align=center;verticalAlign=top;childLayout=stackLayout;horizontal=1;startSize=40;horizontalStack=0;resizeParent=1;resizeParentMax=0;resizeLast=0;collapsible=1;marginBottom=0;whiteSpace=wrap;html=1;" vertex="1" parent="1">
          <mxGeometry x="3589" y="1050" width="265" height="70" as="geometry" />
        </mxCell>
        <mxCell id="V1iUfVh5NWwp2OkV4ms_-138" value="+ Envio de relatório emergencial ()" style="text;strokeColor=none;fillColor=none;align=left;verticalAlign=top;spacingLeft=4;spacingRight=4;overflow=hidden;rotatable=0;points=[[0,0.5],[1,0.5]];portConstraint=eastwest;whiteSpace=wrap;html=1;" vertex="1" parent="V1iUfVh5NWwp2OkV4ms_-137">
          <mxGeometry y="40" width="265" height="30" as="geometry" />
        </mxCell>
        <mxCell id="V1iUfVh5NWwp2OkV4ms_-139" value="Use" style="endArrow=open;html=1;rounded=0;entryX=0.5;entryY=0;entryDx=0;entryDy=0;endFill=0;dashed=1;exitX=0.478;exitY=1.007;exitDx=0;exitDy=0;exitPerimeter=0;" edge="1" parent="1" source="V1iUfVh5NWwp2OkV4ms_-132" target="V1iUfVh5NWwp2OkV4ms_-135">
          <mxGeometry width="50" height="50" relative="1" as="geometry">
            <mxPoint x="3570" y="958" as="sourcePoint" />
            <mxPoint x="3405" y="990" as="targetPoint" />
          </mxGeometry>
        </mxCell>
        <mxCell id="V1iUfVh5NWwp2OkV4ms_-140" value="Use" style="endArrow=open;html=1;rounded=0;entryX=0.5;entryY=0;entryDx=0;entryDy=0;endFill=0;dashed=1;exitX=0.48;exitY=0.973;exitDx=0;exitDy=0;exitPerimeter=0;" edge="1" parent="1" source="V1iUfVh5NWwp2OkV4ms_-132" target="V1iUfVh5NWwp2OkV4ms_-137">
          <mxGeometry width="50" height="50" relative="1" as="geometry">
            <mxPoint x="3570.82" y="958.0280000000002" as="sourcePoint" />
            <mxPoint x="3405" y="1130" as="targetPoint" />
          </mxGeometry>
        </mxCell>
        <mxCell id="V1iUfVh5NWwp2OkV4ms_-141" value="&amp;lt;&amp;lt;Classes&amp;gt;&amp;gt;&lt;div&gt;Gerenciar Emergência&lt;/div&gt;" style="swimlane;fontStyle=1;align=center;verticalAlign=top;childLayout=stackLayout;horizontal=1;startSize=40;horizontalStack=0;resizeParent=1;resizeParentMax=0;resizeLast=0;collapsible=1;marginBottom=0;whiteSpace=wrap;html=1;" vertex="1" parent="1">
          <mxGeometry x="3505" y="1220" width="160" height="66" as="geometry" />
        </mxCell>
        <mxCell id="V1iUfVh5NWwp2OkV4ms_-143" value="+ Buscar ()" style="text;strokeColor=none;fillColor=none;align=left;verticalAlign=top;spacingLeft=4;spacingRight=4;overflow=hidden;rotatable=0;points=[[0,0.5],[1,0.5]];portConstraint=eastwest;whiteSpace=wrap;html=1;" vertex="1" parent="V1iUfVh5NWwp2OkV4ms_-141">
          <mxGeometry y="40" width="160" height="26" as="geometry" />
        </mxCell>
        <mxCell id="V1iUfVh5NWwp2OkV4ms_-144" value="Use" style="endArrow=open;html=1;rounded=0;exitX=0.485;exitY=1.034;exitDx=0;exitDy=0;exitPerimeter=0;entryX=0.5;entryY=0;entryDx=0;entryDy=0;endFill=0;dashed=1;" edge="1" parent="1" source="V1iUfVh5NWwp2OkV4ms_-136" target="V1iUfVh5NWwp2OkV4ms_-141">
          <mxGeometry width="50" height="50" relative="1" as="geometry">
            <mxPoint x="3583" y="1041" as="sourcePoint" />
            <mxPoint x="3405" y="1130" as="targetPoint" />
          </mxGeometry>
        </mxCell>
        <mxCell id="V1iUfVh5NWwp2OkV4ms_-145" value="Use" style="endArrow=open;html=1;rounded=0;exitX=0.515;exitY=1.048;exitDx=0;exitDy=0;exitPerimeter=0;entryX=0.5;entryY=0;entryDx=0;entryDy=0;endFill=0;dashed=1;" edge="1" parent="1" source="V1iUfVh5NWwp2OkV4ms_-138" target="V1iUfVh5NWwp2OkV4ms_-141">
          <mxGeometry width="50" height="50" relative="1" as="geometry">
            <mxPoint x="3685" y="1201" as="sourcePoint" />
            <mxPoint x="3868" y="1310" as="targetPoint" />
          </mxGeometry>
        </mxCell>
      </root>
    </mxGraphModel>
  </diagram>
</mxfile>
